<svg width="112" height="32" viewBox="0 0 112 32" fill="none" xmlns="http://www.w3.org/2000/svg">
<path d="M44.3982 6.44836V11.4861H31.6666V6.44836H44.3982ZM34.1324 1.8136H41.0769V19.5718C41.0769 19.8405 41.123 20.0672 41.2153 20.2519C41.3075 20.4282 41.4501 20.5625 41.643 20.6549C41.8359 20.7389 42.0833 20.7809 42.3853 20.7809C42.5949 20.7809 42.8382 20.7557 43.1149 20.7053C43.4001 20.6549 43.6098 20.6129 43.744 20.5793L44.7504 25.466C44.4401 25.5583 43.9956 25.6717 43.4169 25.806C42.8466 25.9404 42.1672 26.0285 41.3788 26.0705C39.7853 26.1545 38.4475 25.9908 37.3656 25.5793C36.2837 25.1595 35.4701 24.5004 34.925 23.602C34.3798 22.7036 34.1156 21.5785 34.1324 20.2267V1.8136Z" fill="#4EA8DE"/>
<path d="M56.3341 26.1461C54.2373 26.1461 52.4424 25.7305 50.9495 24.8992C49.4566 24.0596 48.3118 22.8925 47.515 21.398C46.7183 19.895 46.3199 18.1528 46.3199 16.1713C46.3199 14.1898 46.7183 12.4517 47.515 10.9572C48.3118 9.45424 49.4566 8.28715 50.9495 7.45591C52.4424 6.61629 54.2373 6.19647 56.3341 6.19647C58.4308 6.19647 60.2257 6.61629 61.7186 7.45591C63.2115 8.28715 64.3563 9.45424 65.1531 10.9572C65.9499 12.4517 66.3483 14.1898 66.3483 16.1713C66.3483 18.1528 65.9499 19.895 65.1531 21.398C64.3563 22.8925 63.2115 24.0596 61.7186 24.8992C60.2257 25.7305 58.4308 26.1461 56.3341 26.1461ZM56.3844 21.0076C56.9715 21.0076 57.4789 20.8102 57.9066 20.4156C58.3344 20.021 58.6657 19.4584 58.9005 18.728C59.1354 17.9975 59.2528 17.1285 59.2528 16.1209C59.2528 15.105 59.1354 14.2359 58.9005 13.5139C58.6657 12.7834 58.3344 12.2208 57.9066 11.8262C57.4789 11.4316 56.9715 11.2343 56.3844 11.2343C55.7637 11.2343 55.2312 11.4316 54.7866 11.8262C54.3421 12.2208 54.0024 12.7834 53.7676 13.5139C53.5328 14.2359 53.4154 15.105 53.4154 16.1209C53.4154 17.1285 53.5328 17.9975 53.7676 18.728C54.0024 19.4584 54.3421 20.021 54.7866 20.4156C55.2312 20.8102 55.7637 21.0076 56.3844 21.0076Z" fill="#4EA8DE"/>
<path d="M76.1819 26.0453C74.8064 26.0453 73.54 25.6843 72.3825 24.9622C71.2335 24.2401 70.3109 23.1444 69.6148 21.6751C68.9271 20.2057 68.5832 18.3543 68.5832 16.1209C68.5832 13.7867 68.9438 11.8892 69.6651 10.4282C70.3948 8.96725 71.3342 7.89672 72.4832 7.21662C73.6406 6.53652 74.8567 6.19647 76.1316 6.19647C77.0877 6.19647 77.9264 6.3644 78.6477 6.70025C79.369 7.02771 79.9729 7.46851 80.4593 8.02267C80.9458 8.56843 81.3148 9.16877 81.5664 9.82368H81.6671V0H88.6116V25.7934H81.7174V22.6196H81.5664C81.298 23.2746 80.9122 23.8623 80.409 24.3829C79.9142 24.895 79.3103 25.3023 78.5974 25.6045C77.8929 25.8984 77.0877 26.0453 76.1819 26.0453ZM78.7484 20.7053C79.3858 20.7053 79.9309 20.5206 80.3838 20.1511C80.8451 19.7733 81.1974 19.2443 81.4406 18.5642C81.6922 17.8757 81.818 17.0613 81.818 16.1209C81.818 15.1637 81.6922 14.3451 81.4406 13.665C81.1974 12.9765 80.8451 12.4517 80.3838 12.0907C79.9309 11.7212 79.3858 11.5365 78.7484 11.5365C78.1109 11.5365 77.5658 11.7212 77.1129 12.0907C76.6684 12.4517 76.3245 12.9765 76.0813 13.665C75.8464 14.3451 75.729 15.1637 75.729 16.1209C75.729 17.0781 75.8464 17.9009 76.0813 18.5894C76.3245 19.2695 76.6684 19.7943 77.1129 20.1637C77.5658 20.5248 78.1109 20.7053 78.7484 20.7053Z" fill="#5E60CE"/>
<path d="M101.331 26.1461C99.2338 26.1461 97.439 25.7305 95.9461 24.8992C94.4532 24.0596 93.3084 22.8925 92.5116 21.398C91.7148 19.895 91.3164 18.1528 91.3164 16.1713C91.3164 14.1898 91.7148 12.4517 92.5116 10.9572C93.3084 9.45424 94.4532 8.28715 95.9461 7.45592C97.439 6.61629 99.2338 6.19647 101.331 6.19647C103.427 6.19647 105.222 6.61629 106.715 7.45592C108.208 8.28715 109.353 9.45424 110.15 10.9572C110.946 12.4517 111.345 14.1898 111.345 16.1713C111.345 18.1528 110.946 19.895 110.15 21.398C109.353 22.8925 108.208 24.0596 106.715 24.8992C105.222 25.7305 103.427 26.1461 101.331 26.1461ZM101.381 21.0076C101.968 21.0076 102.475 20.8102 102.903 20.4156C103.331 20.021 103.662 19.4584 103.897 18.728C104.132 17.9975 104.249 17.1285 104.249 16.1209C104.249 15.105 104.132 14.2359 103.897 13.5139C103.662 12.7834 103.331 12.2208 102.903 11.8262C102.475 11.4316 101.968 11.2343 101.381 11.2343C100.76 11.2343 100.228 11.4316 99.7832 11.8262C99.3387 12.2208 98.999 12.7834 98.7642 13.5139C98.5293 14.2359 98.4119 15.105 98.4119 16.1209C98.4119 17.1285 98.5293 17.9975 98.7642 18.728C98.999 19.4584 99.3387 20.021 99.7832 20.4156C100.228 20.8102 100.76 21.0076 101.381 21.0076Z" fill="#5E60CE"/>
<g clip-path="url(#clip0_401_146)">
<path d="M10.7615 2.68116C13.5298 6.19945 15.0076 10.5381 14.954 14.9901V16.0528L15.8674 16.6092C17.0475 17.3244 17.9276 18.4336 18.3474 19.7348C17.9789 19.4632 17.5933 19.2147 17.193 18.9909L14.7574 17.6219L14.3198 20.385C14.2818 20.6291 14.231 20.8712 14.1675 21.1101H7.34275C7.24126 20.7976 7.15881 20.485 7.08269 20.1599L6.53088 17.6594L4.28554 18.9097C3.91043 19.1197 3.54826 19.3514 3.20094 19.6036C3.62887 18.3174 4.49062 17.2144 5.64289 16.4779L6.51185 15.9215V14.9338C6.52752 10.4999 8.02309 6.19425 10.7678 2.68116H10.7615ZM10.7678 0.0805969C10.6255 0.080943 10.4881 0.13201 10.3809 0.224378L10.3238 0.274389C6.66633 4.30605 4.63537 9.51936 4.61537 14.9276C3.0633 15.92 1.91443 17.4185 1.36952 19.161C0.824617 20.9036 0.918328 22.7795 1.63428 24.4609C2.3885 22.8192 3.6493 21.454 5.23696 20.56C5.39618 21.2398 5.60823 21.9065 5.87123 22.5542C5.90458 22.6787 5.97851 22.789 6.08165 22.868C6.18479 22.9471 6.31142 22.9906 6.44208 22.9918H15.2458C15.4234 22.9918 15.601 22.823 15.6898 22.5605C15.9465 21.9447 16.1254 21.3001 16.2226 20.6413C17.8133 21.5315 19.0751 22.8978 19.8253 24.5421C20.5844 22.869 20.7019 20.9813 20.1561 19.2293C19.6102 17.4772 18.4379 15.9799 16.8569 15.0151C16.9196 9.57499 14.8994 4.31151 11.1991 0.274389C11.144 0.21367 11.0766 0.165041 11.0012 0.131656C10.9258 0.0982718 10.8441 0.080876 10.7615 0.0805969L10.7678 0.0805969Z" fill="#4EA8DE"/>
<path d="M10.7615 14.4087C10.2743 14.4087 9.79806 14.2665 9.39273 14.0001C8.9874 13.7337 8.67116 13.355 8.48387 12.9118C8.29658 12.4685 8.24662 11.9805 8.34029 11.5094C8.43396 11.0382 8.66707 10.6048 9.01023 10.264C9.35339 9.92318 9.79124 9.69011 10.2686 9.59417C10.7459 9.49823 11.2414 9.54372 11.6926 9.72491C12.1438 9.90609 12.5304 10.2149 12.8038 10.6123C13.0772 11.0097 13.2251 11.478 13.2288 11.9582V11.9582C13.2364 12.2693 13.1817 12.5789 13.0679 12.8692C12.954 13.1595 12.7833 13.4249 12.5653 13.6501C12.3474 13.8754 12.0865 14.0561 11.7977 14.182C11.5089 14.3078 11.1977 14.3764 10.882 14.3837C10.8421 14.39 10.8014 14.39 10.7615 14.3837V14.4087Z" fill="#4EA8DE"/>
<path d="M14.1929 24.5484C14.0342 24.5434 13.8761 24.5697 13.7278 24.6257C13.5796 24.6817 13.4441 24.7664 13.3295 24.8747C13.2149 24.983 13.1234 25.1128 13.0604 25.2564C12.9973 25.4001 12.964 25.5547 12.9624 25.7111V29.3994C12.9624 29.7211 13.092 30.0296 13.3228 30.257C13.5536 30.4844 13.8665 30.6122 14.1929 30.6122C14.5192 30.6122 14.8322 30.4844 15.063 30.257C15.2937 30.0296 15.4234 29.7211 15.4234 29.3994V25.7612C15.4285 25.6053 15.402 25.4499 15.3455 25.3042C15.2891 25.1585 15.2037 25.0253 15.0945 24.9124C14.9853 24.7996 14.8544 24.7092 14.7094 24.6467C14.5644 24.5842 14.4082 24.5508 14.25 24.5484H14.1929Z" fill="#5E60CE"/>
<path d="M7.34277 24.5484C7.18137 24.54 7.0199 24.5636 6.86797 24.618C6.71604 24.6723 6.57676 24.7562 6.4584 24.8647C6.34005 24.9732 6.24505 25.104 6.17905 25.2494C6.11305 25.3949 6.0774 25.5519 6.07422 25.7111V29.3994C6.07422 29.7211 6.20386 30.0295 6.43462 30.257C6.66538 30.4844 6.97836 30.6122 7.30471 30.6122C7.63106 30.6122 7.94404 30.4844 8.1748 30.257C8.40556 30.0295 8.5352 29.7211 8.5352 29.3994V25.7611C8.54027 25.6052 8.5138 25.4499 8.45734 25.3042C8.40088 25.1585 8.31555 25.0253 8.20634 24.9124C8.09712 24.7995 7.9662 24.7092 7.8212 24.6467C7.6762 24.5842 7.52003 24.5508 7.3618 24.5484H7.34277Z" fill="#5E60CE"/>
<path d="M10.6727 24.5484C10.5144 24.545 10.357 24.5725 10.2095 24.6291C10.062 24.6858 9.9273 24.7705 9.81303 24.8785C9.69877 24.9865 9.6072 25.1156 9.54357 25.2584C9.47994 25.4013 9.4455 25.5551 9.4422 25.7111V30.7935C9.4422 31.1151 9.57184 31.4236 9.8026 31.651C10.0334 31.8785 10.3463 32.0062 10.6727 32.0062C10.999 32.0062 11.312 31.8785 11.5428 31.651C11.7735 31.4236 11.9032 31.1151 11.9032 30.7935V25.7924C11.9083 25.6365 11.8818 25.4812 11.8253 25.3354C11.7689 25.1897 11.6835 25.0565 11.5743 24.9437C11.4651 24.8308 11.3342 24.7405 11.1892 24.678C11.0442 24.6155 10.888 24.582 10.7298 24.5796L10.6727 24.5484Z" fill="#5E60CE"/>
</g>
<defs>
<clipPath id="clip0_401_146">
<rect width="19.4849" height="31.9194" fill="white" transform="translate(1 0.0805969)"/>
</clipPath>
</defs>
</svg>
